<svg width="176px" height="31px" viewBox="0 0 176 31" version="1.1" xmlns="http://www.w3.org/2000/svg" xmlns:xlink="http://www.w3.org/1999/xlink">
    <defs></defs>
    <g id="Page-1" stroke="none" stroke-width="1" fill="none" fill-rule="evenodd">
        <g id="logo-white" transform="translate(-116.000000, -82.000000)" fill="#fff">
            <g transform="translate(116.000000, 82.000000)" id="Group">
                <g>
                    <path d="M11.5016716,13.6850989 L0,0 L11.5016716,31 L23,0 L11.5016716,13.6850989 Z M3.53263239,4.89191384 L11.2152721,14.2794845 L11.5016716,14.6275777 L11.7869567,14.2794845 L19.4695964,4.89300847 L11.5016716,17.4823799 L3.53263239,4.89191384 Z" id="Page-1"></path>
                    <path d="M51.8212891,23 L48.9545898,23 L48.9545898,17.1459961 L43.5830078,17.1459961 L43.5830078,23 L40.7070312,23 L40.7070312,9.43652344 L43.5830078,9.43652344 L43.5830078,14.7524414 L48.9545898,14.7524414 L48.9545898,9.43652344 L51.8212891,9.43652344 L51.8212891,23 Z M54.9013672,9.94677734 C54.9013672,9.02522326 55.4147084,8.56445312 56.4414062,8.56445312 C57.4681041,8.56445312 57.9814453,9.02522326 57.9814453,9.94677734 C57.9814453,10.3859071 57.85311,10.7276192 57.5964355,10.9719238 C57.3397611,11.2162284 56.9547552,11.3383789 56.4414062,11.3383789 C55.4147084,11.3383789 54.9013672,10.8745164 54.9013672,9.94677734 Z M57.8515625,23 L55.0219727,23 L55.0219727,12.6279297 L57.8515625,12.6279297 L57.8515625,23 Z M68.0566406,19.9199219 C68.0566406,20.9837293 67.6870968,21.7939425 66.947998,22.3505859 C66.2088993,22.9072293 65.1033602,23.1855469 63.6313477,23.1855469 C62.8767866,23.1855469 62.2335639,23.134522 61.7016602,23.0324707 C61.1697565,22.9304194 60.6718773,22.7804372 60.2080078,22.5825195 L60.2080078,20.2446289 C60.7337266,20.492026 61.3259244,20.6992179 61.9846191,20.8662109 C62.6433138,21.033204 63.223142,21.1166992 63.7241211,21.1166992 C64.7508189,21.1166992 65.2641602,20.8198272 65.2641602,20.2260742 C65.2641602,20.0034169 65.196127,19.8225105 65.0600586,19.6833496 C64.9239902,19.5441888 64.6889665,19.3864755 64.3549805,19.2102051 C64.0209944,19.0339347 63.5756864,18.8282889 63.019043,18.5932617 C62.2211874,18.2592757 61.6351744,17.950034 61.2609863,17.6655273 C60.8867983,17.3810207 60.6146656,17.0547707 60.4445801,16.6867676 C60.2744946,16.3187644 60.1894531,15.8657253 60.1894531,15.3276367 C60.1894531,14.4060826 60.5466273,13.6932805 61.2609863,13.189209 C61.9753454,12.6851375 62.9881119,12.4331055 64.2993164,12.4331055 C65.5486716,12.4331055 66.7639915,12.7052382 67.9453125,13.2495117 L67.0917969,15.2905273 C66.572263,15.06787 66.0867536,14.8854174 65.6352539,14.7431641 C65.1837543,14.6009107 64.7229841,14.5297852 64.2529297,14.5297852 C63.4179646,14.5297852 63.0004883,14.7555316 63.0004883,15.2070312 C63.0004883,15.4606132 63.1350084,15.6801749 63.4040527,15.8657227 C63.673097,16.0512705 64.2622025,16.3264956 65.1713867,16.6914062 C65.9816121,17.0192074 66.5753562,17.3253567 66.9526367,17.6098633 C67.3299173,17.8943699 67.6082348,18.2221661 67.7875977,18.5932617 C67.9669605,18.9643573 68.0566406,19.406573 68.0566406,19.9199219 Z M74.6342773,20.9311523 C75.1290715,20.9311523 75.7228155,20.8229177 76.4155273,20.6064453 L76.4155273,22.7124023 C75.7104457,23.0278336 74.8445689,23.1855469 73.8178711,23.1855469 C72.6860295,23.1855469 71.8619004,22.8994983 71.345459,22.3273926 C70.8290176,21.7552869 70.5708008,20.8971411 70.5708008,19.7529297 L70.5708008,14.7524414 L69.2163086,14.7524414 L69.2163086,13.5556641 L70.7749023,12.609375 L71.5913086,10.4199219 L73.4003906,10.4199219 L73.4003906,12.6279297 L76.3041992,12.6279297 L76.3041992,14.7524414 L73.4003906,14.7524414 L73.4003906,19.7529297 C73.4003906,20.1549499 73.5132638,20.451822 73.7390137,20.6435547 C73.9647635,20.8352874 74.2631817,20.9311523 74.6342773,20.9311523 Z M80.7666016,17.7954102 C80.7666016,18.822108 80.9351383,19.5983047 81.2722168,20.1240234 C81.6092953,20.6497422 82.1581993,20.9125977 82.9189453,20.9125977 C83.6735064,20.9125977 84.2162256,20.6512884 84.5471191,20.1286621 C84.8780127,19.6060358 85.043457,18.8282929 85.043457,17.7954102 C85.043457,16.7687123 84.8764665,15.9987005 84.5424805,15.4853516 C84.2084944,14.9720026 83.6611366,14.715332 82.9003906,14.715332 C82.1458296,14.715332 81.6015642,14.9704564 81.2675781,15.4807129 C80.9335921,15.9909693 80.7666016,16.7625274 80.7666016,17.7954102 Z M87.9379883,17.7954102 C87.9379883,19.4838952 87.4926802,20.8043572 86.6020508,21.7568359 C85.7114213,22.7093147 84.4713621,23.1855469 82.8818359,23.1855469 C81.8860627,23.1855469 81.0078163,22.9675315 80.2470703,22.5314941 C79.4863243,22.0954568 78.9018575,21.4692424 78.4936523,20.652832 C78.0854472,19.8364217 77.8813477,18.8839573 77.8813477,17.7954102 C77.8813477,16.1007402 78.3235633,14.7833706 79.2080078,13.8432617 C80.0924523,12.9031529 81.335604,12.4331055 82.9375,12.4331055 C83.9332732,12.4331055 84.8115196,12.6495747 85.5722656,13.0825195 C86.3330116,13.5154644 86.9174784,14.1370402 87.3256836,14.9472656 C87.7338888,15.757491 87.9379883,16.706863 87.9379883,17.7954102 Z M96.0649414,12.4331055 C96.4484069,12.4331055 96.7669258,12.4609372 97.0205078,12.5166016 L96.8071289,15.1699219 C96.5782866,15.1080726 96.2999691,15.0771484 95.972168,15.0771484 C95.0691687,15.0771484 94.3656438,15.3090797 93.8615723,15.7729492 C93.3575007,16.2368187 93.1054688,16.8862263 93.1054688,17.7211914 L93.1054688,23 L90.2758789,23 L90.2758789,12.6279297 L92.4189453,12.6279297 L92.8364258,14.3720703 L92.9755859,14.3720703 C93.2972021,13.7906872 93.7316867,13.322186 94.2790527,12.9665527 C94.8264188,12.6109194 95.421709,12.4331055 96.0649414,12.4331055 Z M97.4194336,12.6279297 L100.518066,12.6279297 L102.475586,18.4633789 C102.642579,18.9705429 102.756998,19.5704718 102.818848,20.2631836 L102.874512,20.2631836 C102.942546,19.6261361 103.07552,19.0262072 103.273438,18.4633789 L105.193848,12.6279297 L108.227539,12.6279297 L103.839355,24.3266602 C103.437335,25.4090223 102.863692,26.2192356 102.118408,26.7573242 C101.373125,27.2954128 100.502609,27.5644531 99.5068359,27.5644531 C99.0182267,27.5644531 98.5389021,27.511882 98.0688477,27.4067383 L98.0688477,25.1616211 C98.4090186,25.2420251 98.7801087,25.2822266 99.1821289,25.2822266 C99.683108,25.2822266 100.120685,25.1291519 100.494873,24.822998 C100.869061,24.5168442 101.161295,24.0545278 101.371582,23.4360352 L101.538574,22.9257812 L97.4194336,12.6279297 Z M122.876465,19.2333984 C122.876465,20.4580139 122.435795,21.422848 121.554443,22.1279297 C120.673091,22.8330113 119.446948,23.1855469 117.875977,23.1855469 C116.428704,23.1855469 115.148443,22.9134142 114.035156,22.3691406 L114.035156,19.6972656 C114.950525,20.1054708 115.725176,20.3930656 116.359131,20.5600586 C116.993086,20.7270516 117.572914,20.8105469 118.098633,20.8105469 C118.729495,20.8105469 119.213459,20.6899426 119.550537,20.4487305 C119.887616,20.2075183 120.056152,19.848798 120.056152,19.3725586 C120.056152,19.1066067 119.981934,18.8700368 119.833496,18.6628418 C119.685058,18.4556468 119.467042,18.2561859 119.179443,18.0644531 C118.891844,17.8727204 118.305831,17.5665711 117.421387,17.1459961 C116.592607,16.7563457 115.971031,16.3821633 115.556641,16.0234375 C115.142251,15.6647117 114.811362,15.2472355 114.563965,14.7709961 C114.316568,14.2947567 114.192871,13.7381217 114.192871,13.1010742 C114.192871,11.9011984 114.599524,10.9580112 115.412842,10.2714844 C116.22616,9.5849575 117.350253,9.24169922 118.785156,9.24169922 C119.490238,9.24169922 120.162839,9.32519448 120.802979,9.4921875 C121.443118,9.65918052 122.112627,9.89420421 122.811523,10.1972656 L121.883789,12.4331055 C121.160153,12.136229 120.56177,11.929037 120.088623,11.8115234 C119.615476,11.6940098 119.150067,11.6352539 118.692383,11.6352539 C118.148109,11.6352539 117.730633,11.762043 117.439941,12.015625 C117.14925,12.269207 117.003906,12.6000956 117.003906,13.0083008 C117.003906,13.2618828 117.062662,13.4829906 117.180176,13.6716309 C117.297689,13.8602711 117.484781,14.0427237 117.741455,14.2189941 C117.99813,14.3952646 118.605789,14.7122373 119.564453,15.1699219 C120.832363,15.7760447 121.701332,16.3837046 122.171387,16.9929199 C122.641441,17.6021352 122.876465,18.3489539 122.876465,19.2333984 Z M129.407715,14.4462891 C128.807777,14.4462891 128.33773,14.6364727 127.997559,15.0168457 C127.657388,15.3972187 127.462565,15.9368455 127.413086,16.6357422 L131.383789,16.6357422 C131.371419,15.9368455 131.188967,15.3972187 130.836426,15.0168457 C130.483885,14.6364727 130.007653,14.4462891 129.407715,14.4462891 Z M129.806641,23.1855469 C128.13671,23.1855469 126.83171,22.7247767 125.891602,21.8032227 C124.951493,20.8816686 124.481445,19.5766686 124.481445,17.8881836 C124.481445,16.1502192 124.91593,14.806564 125.784912,13.8571777 C126.653894,12.9077915 127.855298,12.4331055 129.38916,12.4331055 C130.854988,12.4331055 131.99609,12.8505818 132.8125,13.6855469 C133.62891,14.520512 134.037109,15.6739835 134.037109,17.1459961 L134.037109,18.519043 L127.348145,18.519043 C127.379069,19.3230834 127.617185,19.9508441 128.0625,20.4023438 C128.507815,20.8538434 129.132483,21.0795898 129.936523,21.0795898 C130.561201,21.0795898 131.151853,21.0146491 131.708496,20.8847656 C132.26514,20.7548822 132.846514,20.5476902 133.452637,20.2631836 L133.452637,22.4526367 C132.957843,22.7000338 132.429039,22.8840326 131.866211,23.0046387 C131.303383,23.1252447 130.616866,23.1855469 129.806641,23.1855469 Z M142.924805,23 L142.377441,21.5898438 L142.303223,21.5898438 C141.826983,22.1897816 141.336835,22.6057117 140.832764,22.8376465 C140.328692,23.0695812 139.671554,23.1855469 138.861328,23.1855469 C137.865555,23.1855469 137.081627,22.9010445 136.509521,22.3320312 C135.937416,21.763018 135.651367,20.9528047 135.651367,19.9013672 C135.651367,18.8004502 136.036373,17.9886908 136.806396,17.4660645 C137.57642,16.9434381 138.737622,16.6542972 140.290039,16.5986328 L142.089844,16.5429688 L142.089844,16.0883789 C142.089844,15.0369414 141.551763,14.5112305 140.475586,14.5112305 C139.646806,14.5112305 138.672694,14.7617162 137.553223,15.2626953 L136.616211,13.3515625 C137.809902,12.7268849 139.133456,12.4145508 140.586914,12.4145508 C141.978523,12.4145508 143.045406,12.7176076 143.787598,13.3237305 C144.529789,13.9298533 144.900879,14.8513936 144.900879,16.0883789 L144.900879,23 L142.924805,23 Z M142.089844,18.1943359 L140.995117,18.2314453 C140.172522,18.256185 139.560223,18.404621 139.158203,18.6767578 C138.756183,18.9488946 138.555176,19.3632785 138.555176,19.9199219 C138.555176,20.7177774 139.012853,21.1166992 139.928223,21.1166992 C140.583825,21.1166992 141.10799,20.9280618 141.500732,20.5507812 C141.893475,20.1735007 142.089844,19.6725292 142.089844,19.0478516 L142.089844,18.1943359 Z M153.603027,12.4331055 C153.986493,12.4331055 154.305012,12.4609372 154.558594,12.5166016 L154.345215,15.1699219 C154.116373,15.1080726 153.838055,15.0771484 153.510254,15.0771484 C152.607255,15.0771484 151.90373,15.3090797 151.399658,15.7729492 C150.895587,16.2368187 150.643555,16.8862263 150.643555,17.7211914 L150.643555,23 L147.813965,23 L147.813965,12.6279297 L149.957031,12.6279297 L150.374512,14.3720703 L150.513672,14.3720703 C150.835288,13.7906872 151.269773,13.322186 151.817139,12.9665527 C152.364505,12.6109194 152.959795,12.4331055 153.603027,12.4331055 Z M160.653809,23.1855469 C157.425277,23.1855469 155.811035,21.4135919 155.811035,17.8696289 C155.811035,16.1069248 156.250158,14.7601772 157.128418,13.8293457 C158.006678,12.8985142 159.265291,12.4331055 160.904297,12.4331055 C162.104173,12.4331055 163.180334,12.6681292 164.132812,13.1381836 L163.297852,15.3276367 C162.852537,15.1482738 162.438153,15.001384 162.054688,14.8869629 C161.671222,14.7725417 161.287762,14.715332 160.904297,14.715332 C159.432284,14.715332 158.696289,15.760569 158.696289,17.8510742 C158.696289,19.8797302 159.432284,20.894043 160.904297,20.894043 C161.44857,20.894043 161.952634,20.8213712 162.416504,20.6760254 C162.880373,20.5306796 163.344236,20.303387 163.808105,19.9941406 L163.808105,22.4155273 C163.350421,22.7062189 162.888105,22.907226 162.421143,23.0185547 C161.954181,23.1298834 161.365075,23.1855469 160.653809,23.1855469 Z M175.785156,23 L172.955566,23 L172.955566,16.9418945 C172.955566,15.4451423 172.398931,14.6967773 171.285645,14.6967773 C170.493974,14.6967773 169.921877,14.9658176 169.569336,15.5039062 C169.216795,16.0419949 169.040527,16.9140565 169.040527,18.1201172 L169.040527,23 L166.210938,23 L166.210938,8.56445312 L169.040527,8.56445312 L169.040527,11.5053711 C169.040527,11.7342134 169.01888,12.2722939 168.975586,13.1196289 L168.910645,13.9545898 L169.059082,13.9545898 C169.689945,12.9402619 170.691888,12.4331055 172.064941,12.4331055 C173.283372,12.4331055 174.208005,12.7609017 174.838867,13.4165039 C175.46973,14.0721061 175.785156,15.0122009 175.785156,16.2368164 L175.785156,23 Z" id="History-Search"></path>
                </g>
            </g>
        </g>
    </g>
</svg>